<?xml version="1.0" standalone="no"?>
<!DOCTYPE svg PUBLIC "-//W3C//DTD SVG 20010904//EN"
 "http://www.w3.org/TR/2001/REC-SVG-20010904/DTD/svg10.dtd">
<svg version="1.0" xmlns="http://www.w3.org/2000/svg"
 width="1255.000000pt" height="437.000000pt" viewBox="0 0 1255.000000 437.000000"
 preserveAspectRatio="xMidYMid meet">

<g transform="translate(0.000000,437.000000) scale(0.100000,-0.100000)"
fill="#000000" stroke="none">
<path d="M0 2185 l0 -2185 6275 0 6275 0 0 710 0 709 -40 11 c-21 6 -86 19
-142 30 -144 27 -290 57 -375 76 l-73 16 0 509 0 509 315 0 315 0 0 90 0 90
-315 0 -315 0 2 523 3 522 45 6 c70 10 363 56 478 75 l102 17 0 239 0 238
-6275 0 -6275 0 0 -2185z m8984 1781 c203 -55 351 -139 497 -285 168 -167 282
-387 318 -611 16 -94 13 -332 -3 -425 -53 -292 -231 -560 -490 -737 -83 -57
-225 -121 -342 -155 -93 -26 -110 -28 -294 -28 -184 0 -201 2 -294 28 -369
105 -635 351 -770 712 -116 307 -89 685 69 965 142 250 349 420 627 511 141
46 239 59 423 55 134 -3 176 -8 259 -30z m-4955 -16 c5 -17 6 -28 2 -25 -5 3
-14 19 -20 35 -5 17 -6 28 -2 25 5 -3 14 -19 20 -35z m-1522 -2 c-3 -7 -5 -2
-5 12 0 14 2 19 5 13 2 -7 2 -19 0 -25z m3986 5 c-7 -2 -19 -2 -25 0 -7 3 -2
5 12 5 14 0 19 -2 13 -5z m5037 -14 c0 -20 -30 -79 -225 -439 -34 -63 -86
-160 -115 -215 -29 -55 -78 -147 -110 -205 -76 -140 -195 -362 -260 -485 -29
-55 -74 -138 -100 -185 -40 -72 -117 -217 -128 -242 -2 -5 206 -8 462 -8 l466
0 0 -205 0 -205 -830 0 c-456 0 -830 3 -830 8 0 4 9 18 20 32 11 14 20 28 20
32 0 5 35 72 78 150 43 79 132 242 197 363 162 301 613 1121 642 1167 13 21
23 41 23 45 0 5 -202 7 -450 5 l-450 -2 0 205 0 205 795 0 795 0 0 -21z
m-11129 -6 c13 -16 12 -17 -3 -4 -17 13 -22 21 -14 21 2 0 10 -8 17 -17z
m6152 10 c-7 -2 -21 -2 -30 0 -10 3 -4 5 12 5 17 0 24 -2 18 -5z m72 -13 c25
-11 -1 -11 -35 0 -20 6 -21 8 -5 8 11 0 29 -3 40 -8z m-2567 -45 c-3 -3 -9 2
-12 12 -6 14 -5 15 5 6 7 -7 10 -15 7 -18z m2697 0 c39 -17 21 -18 -25 0 -19
7 -28 14 -20 14 8 0 29 -6 45 -14z m-2675 -50 c0 -5 -5 -3 -10 5 -5 8 -10 20
-10 25 0 6 5 3 10 -5 5 -8 10 -19 10 -25z m2776 5 c15 -6 24 -13 21 -16 -5 -6
-87 33 -87 42 0 2 9 0 19 -6 11 -5 32 -15 47 -20z m-6331 -47 c21 -27 28 -39
16 -28 -23 19 -66 75 -59 75 2 0 21 -21 43 -47z m6473 -37 c23 -16 40 -31 38
-33 -4 -4 -80 43 -131 81 -32 24 44 -16 93 -48z m-2874 -16 c5 -17 4 -20 -2
-10 -5 8 -13 26 -16 40 -5 17 -4 20 2 10 5 -8 13 -26 16 -40z m-3504 -55 c14
-19 14 -19 -2 -6 -10 7 -18 18 -18 24 0 6 1 8 3 6 1 -2 9 -13 17 -24z m3554
-45 c5 -17 4 -20 -2 -10 -5 8 -13 26 -16 40 -5 17 -4 20 2 10 5 -8 13 -26 16
-40z m-3503 -7 c13 -16 12 -17 -3 -4 -10 7 -18 15 -18 17 0 8 8 3 21 -13z
m3558 -105 c6 -18 7 -28 2 -23 -10 12 -25 55 -18 55 3 0 10 -15 16 -32z
m-3458 -5 c13 -16 12 -17 -3 -4 -10 7 -18 15 -18 17 0 8 8 3 21 -13z m47 -58
c-3 -3 -9 2 -12 12 -6 14 -5 15 5 6 7 -7 10 -15 7 -18z m3450 -20 c-3 -3 -9 2
-12 12 -6 14 -5 15 5 6 7 -7 10 -15 7 -18z m22 -50 c0 -5 -5 -3 -10 5 -5 8
-10 20 -10 25 0 6 5 3 10 -5 5 -8 10 -19 10 -25z m-3370 -35 c6 -11 8 -20 6
-20 -3 0 -10 9 -16 20 -6 11 -8 20 -6 20 3 0 10 -9 16 -20z m3410 -45 c0 -5
-5 -3 -10 5 -5 8 -10 20 -10 25 0 6 5 3 10 -5 5 -8 10 -19 10 -25z m-3369 -2
c13 -16 12 -17 -3 -4 -10 7 -18 15 -18 17 0 8 8 3 21 -13z m3423 -113 c5 -17
4 -20 -2 -10 -5 8 -13 26 -16 40 -5 17 -4 20 2 10 5 -8 13 -26 16 -40z m-3343
23 c13 -16 12 -17 -3 -4 -10 7 -18 15 -18 17 0 8 8 3 21 -13z m3399 -138 c0
-5 -5 -3 -10 5 -5 8 -10 20 -10 25 0 6 5 3 10 -5 5 -8 10 -19 10 -25z m2807
-71 c-3 -3 -12 -4 -19 -1 -8 3 -5 6 6 6 11 1 17 -2 13 -5z m33 -4 c0 -5 -2
-10 -4 -10 -3 0 -8 5 -11 10 -3 6 -1 10 4 10 6 0 11 -4 11 -10z m-5999 -47
c13 -16 12 -17 -3 -4 -10 7 -18 15 -18 17 0 8 8 3 21 -13z m4336 -325 c-3 -8
-6 -5 -6 6 -1 11 2 17 5 13 3 -3 4 -12 1 -19z m63 -143 c0 -5 -5 -3 -10 5 -5
8 -10 20 -10 25 0 6 5 3 10 -5 5 -8 10 -19 10 -25z m213 -239 c27 -20 45 -36
41 -36 -12 0 -107 77 -144 117 l-35 38 45 -41 c25 -23 67 -58 93 -78z m143
-83 c-5 -5 -76 24 -76 31 0 2 18 -3 40 -11 22 -9 38 -18 36 -20z m152 -40
c-10 -2 -26 -2 -35 0 -10 3 -2 5 17 5 19 0 27 -2 18 -5z m5340 -775 l3 -38
-5610 0 -5611 0 0 33 c0 19 3 37 6 40 4 3 2527 5 5608 4 l5601 -2 3 -37z
m-7008 -348 c146 -19 246 -94 286 -212 23 -72 16 -224 -15 -294 -24 -55 -74
-108 -132 -141 -105 -60 -363 -66 -488 -12 -155 66 -228 262 -166 444 22 64
55 107 113 150 85 61 238 86 402 65z m5190 0 c109 -14 176 -46 234 -112 59
-67 80 -143 74 -261 -10 -188 -115 -294 -317 -319 -176 -22 -334 15 -416 97
-87 87 -120 253 -76 379 49 138 143 201 331 219 70 7 87 7 170 -3z m-9160
-344 l0 -344 -75 0 -75 0 0 342 0 342 75 2 75 3 0 -345z m2849 334 c52 -6 97
-13 100 -15 3 -3 -2 -31 -10 -63 l-14 -57 -80 5 c-308 19 -412 -3 -391 -84 10
-39 41 -47 227 -55 149 -7 171 -10 210 -32 62 -34 89 -86 89 -172 0 -89 -23
-135 -87 -173 -45 -27 -56 -29 -187 -32 -117 -4 -377 12 -397 24 -3 2 1 31 9
65 l15 61 56 -6 c31 -3 117 -9 191 -12 182 -9 250 11 250 71 0 49 -36 62 -192
69 -212 11 -282 36 -324 118 -63 123 1 256 137 286 59 13 281 14 398 2z m2083
-267 l3 -278 208 -3 207 -2 0 -66 0 -65 -282 3 -283 3 -3 337 -2 337 67 4 c38
2 71 4 75 5 4 1 9 -123 10 -275z m1040 42 c3 -199 5 -223 23 -254 33 -55 84
-76 191 -76 81 0 95 3 131 27 56 37 63 73 63 322 l0 206 76 0 76 0 -4 -242
c-5 -256 -10 -285 -55 -345 -42 -55 -103 -83 -208 -95 -185 -21 -332 18 -391
104 -46 65 -54 121 -54 360 l0 217 68 3 c37 2 70 1 74 -2 4 -3 8 -104 10 -225z
m2213 -112 l0 -338 -72 -3 -73 -4 0 344 0 343 72 -2 73 -1 0 -339z m1954 294
c20 -23 49 -55 65 -72 15 -16 99 -106 185 -198 l156 -168 5 243 5 243 73 3 72
3 0 -345 0 -346 -79 0 -78 0 -44 48 c-23 26 -81 88 -128 138 -47 50 -128 136
-180 192 -51 56 -96 102 -100 102 -3 0 -5 -107 -3 -238 l3 -238 -73 1 -73 0 0
337 0 337 70 3 c39 2 74 1 79 -1 5 -2 25 -22 45 -44z m1552 42 c57 -5 105 -12
108 -14 5 -6 -20 -125 -28 -129 -3 -2 -44 2 -91 10 -158 26 -336 12 -361 -28
-5 -7 -9 -25 -9 -40 0 -48 28 -56 217 -67 192 -11 236 -24 279 -88 51 -76 38
-200 -28 -259 -52 -48 -86 -57 -229 -62 -132 -4 -366 12 -381 27 -4 4 0 33 9
65 l16 58 66 -6 c36 -3 123 -9 193 -12 107 -6 134 -4 172 10 35 13 46 23 51
46 7 33 -7 66 -32 74 -10 2 -72 8 -138 11 -66 4 -151 14 -190 22 -125 28 -179
109 -159 239 11 78 72 132 164 147 52 9 272 7 371 -4z m-10451 -65 l0 -65
-130 3 -130 3 0 -275 0 -275 -75 0 -75 0 0 273 c0 211 -3 272 -12 272 -7 1
-69 2 -138 3 l-125 2 -3 63 -3 62 346 0 345 0 0 -66z m6388 4 l-3 -63 -137 -3
-138 -3 0 -275 0 -275 -72 3 -73 3 -3 272 -2 272 -128 3 -127 3 -3 63 -3 62
346 0 346 0 -3 -62z"/>
<path d="M8577 3579 c-201 -26 -398 -174 -501 -376 -41 -81 -76 -232 -76 -327
0 -94 36 -249 77 -330 150 -297 434 -439 743 -372 140 30 286 121 375 234 59
74 119 190 141 272 24 87 24 269 1 364 -72 292 -297 500 -578 536 -92 11 -86
11 -182 -1z"/>
<path d="M4265 856 c-27 -13 -58 -32 -67 -42 -67 -75 -62 -244 8 -306 46 -41
116 -62 204 -63 75 0 92 4 145 30 50 25 64 38 84 78 62 125 18 262 -101 311
-60 25 -210 21 -273 -8z"/>
<path d="M9535 880 c-91 -17 -136 -49 -166 -118 -39 -90 -14 -214 53 -266 82
-62 234 -70 338 -18 71 35 100 87 100 178 0 107 -34 167 -116 203 -48 22 -152
32 -209 21z"/>
</g>
</svg>
